<mxfile host="app.diagrams.net" agent="Mozilla/5.0 (Windows NT 10.0; Win64; x64) AppleWebKit/537.36 (KHTML, like Gecko) Chrome/140.0.0.0 Safari/537.36" version="28.2.5">
  <diagram name="PÃ¡gina-1" id="D9Bm8yn_FymMG-Cfbg1P">
    <mxGraphModel dx="1381" dy="783" grid="1" gridSize="10" guides="1" tooltips="1" connect="1" arrows="1" fold="1" page="1" pageScale="1" pageWidth="827" pageHeight="1169" math="0" shadow="0">
      <root>
        <mxCell id="0" />
        <mxCell id="1" parent="0" />
        <mxCell id="qWcGwvCuWbTaRRagZQUI-2" value="Contador" style="rounded=0;whiteSpace=wrap;html=1;" parent="1" vertex="1">
          <mxGeometry x="590" y="410" width="120" height="60" as="geometry" />
        </mxCell>
        <mxCell id="qWcGwvCuWbTaRRagZQUI-3" value="Bodeguero" style="rounded=0;whiteSpace=wrap;html=1;" parent="1" vertex="1">
          <mxGeometry x="40" y="210" width="120" height="60" as="geometry" />
        </mxCell>
        <mxCell id="qWcGwvCuWbTaRRagZQUI-4" value="proveedor" style="rounded=0;whiteSpace=wrap;html=1;" parent="1" vertex="1">
          <mxGeometry x="620" y="210" width="120" height="60" as="geometry" />
        </mxCell>
        <mxCell id="qWcGwvCuWbTaRRagZQUI-5" value="Movimientos" style="rounded=0;whiteSpace=wrap;html=1;" parent="1" vertex="1">
          <mxGeometry x="40" y="410" width="120" height="60" as="geometry" />
        </mxCell>
        <mxCell id="qWcGwvCuWbTaRRagZQUI-6" value="Pedido" style="rounded=0;whiteSpace=wrap;html=1;" parent="1" vertex="1">
          <mxGeometry x="315" y="410" width="120" height="60" as="geometry" />
        </mxCell>
        <mxCell id="qWcGwvCuWbTaRRagZQUI-7" value="Producto" style="rounded=0;whiteSpace=wrap;html=1;" parent="1" vertex="1">
          <mxGeometry x="315" y="210" width="120" height="60" as="geometry" />
        </mxCell>
        <mxCell id="qWcGwvCuWbTaRRagZQUI-23" value="" style="rounded=0;orthogonalLoop=1;jettySize=auto;html=1;endArrow=halfCircle;endFill=0;endSize=6;strokeWidth=1;sketch=0;exitX=0.5;exitY=0;exitDx=0;exitDy=0;" parent="1" source="qWcGwvCuWbTaRRagZQUI-6" target="qWcGwvCuWbTaRRagZQUI-25" edge="1">
          <mxGeometry relative="1" as="geometry">
            <mxPoint x="520" y="335" as="sourcePoint" />
          </mxGeometry>
        </mxCell>
        <mxCell id="qWcGwvCuWbTaRRagZQUI-26" value="Id Producto" style="edgeLabel;html=1;align=center;verticalAlign=middle;resizable=0;points=[];" parent="qWcGwvCuWbTaRRagZQUI-23" connectable="0" vertex="1">
          <mxGeometry x="0.2364" relative="1" as="geometry">
            <mxPoint x="-60" y="-21" as="offset" />
          </mxGeometry>
        </mxCell>
        <mxCell id="qWcGwvCuWbTaRRagZQUI-24" value="" style="rounded=0;orthogonalLoop=1;jettySize=auto;html=1;endArrow=oval;endFill=0;sketch=0;sourcePerimeterSpacing=0;targetPerimeterSpacing=0;endSize=10;exitX=0.5;exitY=1;exitDx=0;exitDy=0;" parent="1" source="qWcGwvCuWbTaRRagZQUI-7" target="qWcGwvCuWbTaRRagZQUI-25" edge="1">
          <mxGeometry relative="1" as="geometry">
            <mxPoint x="480" y="335" as="sourcePoint" />
          </mxGeometry>
        </mxCell>
        <mxCell id="qWcGwvCuWbTaRRagZQUI-25" value="" style="ellipse;whiteSpace=wrap;html=1;align=center;aspect=fixed;fillColor=none;strokeColor=none;resizable=0;perimeter=centerPerimeter;rotatable=0;allowArrows=0;points=[];outlineConnect=1;" parent="1" vertex="1">
          <mxGeometry x="370" y="340" width="10" height="10" as="geometry" />
        </mxCell>
        <mxCell id="qWcGwvCuWbTaRRagZQUI-34" value="" style="rounded=0;orthogonalLoop=1;jettySize=auto;html=1;endArrow=halfCircle;endFill=0;endSize=6;strokeWidth=1;sketch=0;exitX=0;exitY=0.5;exitDx=0;exitDy=0;" parent="1" source="qWcGwvCuWbTaRRagZQUI-7" target="qWcGwvCuWbTaRRagZQUI-36" edge="1">
          <mxGeometry relative="1" as="geometry">
            <mxPoint x="250" y="240" as="sourcePoint" />
          </mxGeometry>
        </mxCell>
        <mxCell id="qWcGwvCuWbTaRRagZQUI-35" value="" style="rounded=0;orthogonalLoop=1;jettySize=auto;html=1;endArrow=oval;endFill=0;sketch=0;sourcePerimeterSpacing=0;targetPerimeterSpacing=0;endSize=10;exitX=1;exitY=0.5;exitDx=0;exitDy=0;" parent="1" source="qWcGwvCuWbTaRRagZQUI-3" target="qWcGwvCuWbTaRRagZQUI-36" edge="1">
          <mxGeometry relative="1" as="geometry">
            <mxPoint x="210" y="240" as="sourcePoint" />
          </mxGeometry>
        </mxCell>
        <mxCell id="qWcGwvCuWbTaRRagZQUI-37" value="Stock producto" style="edgeLabel;html=1;align=center;verticalAlign=middle;resizable=0;points=[];" parent="qWcGwvCuWbTaRRagZQUI-35" connectable="0" vertex="1">
          <mxGeometry x="0.125" y="-1" relative="1" as="geometry">
            <mxPoint x="35" y="-21" as="offset" />
          </mxGeometry>
        </mxCell>
        <mxCell id="qWcGwvCuWbTaRRagZQUI-36" value="" style="ellipse;whiteSpace=wrap;html=1;align=center;aspect=fixed;fillColor=none;strokeColor=none;resizable=0;perimeter=centerPerimeter;rotatable=0;allowArrows=0;points=[];outlineConnect=1;" parent="1" vertex="1">
          <mxGeometry x="225" y="235" width="10" height="10" as="geometry" />
        </mxCell>
        <mxCell id="qWcGwvCuWbTaRRagZQUI-38" value="" style="rounded=0;orthogonalLoop=1;jettySize=auto;html=1;endArrow=halfCircle;endFill=0;endSize=6;strokeWidth=1;sketch=0;exitX=1;exitY=0.5;exitDx=0;exitDy=0;" parent="1" source="qWcGwvCuWbTaRRagZQUI-7" target="qWcGwvCuWbTaRRagZQUI-40" edge="1">
          <mxGeometry relative="1" as="geometry">
            <mxPoint x="520" y="335" as="sourcePoint" />
          </mxGeometry>
        </mxCell>
        <mxCell id="qWcGwvCuWbTaRRagZQUI-39" value="" style="rounded=0;orthogonalLoop=1;jettySize=auto;html=1;endArrow=oval;endFill=0;sketch=0;sourcePerimeterSpacing=0;targetPerimeterSpacing=0;endSize=10;exitX=0;exitY=0.5;exitDx=0;exitDy=0;" parent="1" source="qWcGwvCuWbTaRRagZQUI-4" target="qWcGwvCuWbTaRRagZQUI-40" edge="1">
          <mxGeometry relative="1" as="geometry">
            <mxPoint x="480" y="335" as="sourcePoint" />
          </mxGeometry>
        </mxCell>
        <mxCell id="qWcGwvCuWbTaRRagZQUI-41" value="Factura/Registro de Productos" style="edgeLabel;html=1;align=center;verticalAlign=middle;resizable=0;points=[];" parent="qWcGwvCuWbTaRRagZQUI-39" connectable="0" vertex="1">
          <mxGeometry x="0.6376" y="4" relative="1" as="geometry">
            <mxPoint x="-14" y="-24" as="offset" />
          </mxGeometry>
        </mxCell>
        <mxCell id="qWcGwvCuWbTaRRagZQUI-40" value="" style="ellipse;whiteSpace=wrap;html=1;align=center;aspect=fixed;fillColor=none;strokeColor=none;resizable=0;perimeter=centerPerimeter;rotatable=0;allowArrows=0;points=[];outlineConnect=1;" parent="1" vertex="1">
          <mxGeometry x="510" y="235" width="10" height="10" as="geometry" />
        </mxCell>
        <mxCell id="qWcGwvCuWbTaRRagZQUI-48" value="" style="rounded=0;orthogonalLoop=1;jettySize=auto;html=1;endArrow=halfCircle;endFill=0;endSize=6;strokeWidth=1;sketch=0;exitX=1;exitY=0.5;exitDx=0;exitDy=0;" parent="1" source="qWcGwvCuWbTaRRagZQUI-6" target="qWcGwvCuWbTaRRagZQUI-50" edge="1">
          <mxGeometry relative="1" as="geometry">
            <mxPoint x="680" y="375" as="sourcePoint" />
          </mxGeometry>
        </mxCell>
        <mxCell id="qWcGwvCuWbTaRRagZQUI-49" value="" style="rounded=0;orthogonalLoop=1;jettySize=auto;html=1;endArrow=oval;endFill=0;sketch=0;sourcePerimeterSpacing=0;targetPerimeterSpacing=0;endSize=10;exitX=0;exitY=0.5;exitDx=0;exitDy=0;" parent="1" source="qWcGwvCuWbTaRRagZQUI-2" target="qWcGwvCuWbTaRRagZQUI-50" edge="1">
          <mxGeometry relative="1" as="geometry">
            <mxPoint x="640" y="375" as="sourcePoint" />
          </mxGeometry>
        </mxCell>
        <mxCell id="qWcGwvCuWbTaRRagZQUI-51" value="Registro financiero" style="edgeLabel;html=1;align=center;verticalAlign=middle;resizable=0;points=[];" parent="qWcGwvCuWbTaRRagZQUI-49" connectable="0" vertex="1">
          <mxGeometry x="0.3846" y="2" relative="1" as="geometry">
            <mxPoint x="-18" y="-20" as="offset" />
          </mxGeometry>
        </mxCell>
        <mxCell id="qWcGwvCuWbTaRRagZQUI-50" value="" style="ellipse;whiteSpace=wrap;html=1;align=center;aspect=fixed;fillColor=none;strokeColor=none;resizable=0;perimeter=centerPerimeter;rotatable=0;allowArrows=0;points=[];outlineConnect=1;" parent="1" vertex="1">
          <mxGeometry x="510" y="435" width="10" height="10" as="geometry" />
        </mxCell>
        <mxCell id="qWcGwvCuWbTaRRagZQUI-58" value="" style="rounded=0;orthogonalLoop=1;jettySize=auto;html=1;endArrow=halfCircle;endFill=0;endSize=6;strokeWidth=1;sketch=0;exitX=0;exitY=0.5;exitDx=0;exitDy=0;" parent="1" source="qWcGwvCuWbTaRRagZQUI-6" target="qWcGwvCuWbTaRRagZQUI-60" edge="1">
          <mxGeometry relative="1" as="geometry">
            <mxPoint x="250" y="440" as="sourcePoint" />
          </mxGeometry>
        </mxCell>
        <mxCell id="qWcGwvCuWbTaRRagZQUI-61" value="Id Movimiento" style="edgeLabel;html=1;align=center;verticalAlign=middle;resizable=0;points=[];" parent="qWcGwvCuWbTaRRagZQUI-58" connectable="0" vertex="1">
          <mxGeometry x="0.4353" y="3" relative="1" as="geometry">
            <mxPoint x="-24" y="-23" as="offset" />
          </mxGeometry>
        </mxCell>
        <mxCell id="qWcGwvCuWbTaRRagZQUI-59" value="" style="rounded=0;orthogonalLoop=1;jettySize=auto;html=1;endArrow=oval;endFill=0;sketch=0;sourcePerimeterSpacing=0;targetPerimeterSpacing=0;endSize=10;exitX=1;exitY=0.5;exitDx=0;exitDy=0;" parent="1" source="qWcGwvCuWbTaRRagZQUI-5" target="qWcGwvCuWbTaRRagZQUI-60" edge="1">
          <mxGeometry relative="1" as="geometry">
            <mxPoint x="210" y="440" as="sourcePoint" />
          </mxGeometry>
        </mxCell>
        <mxCell id="qWcGwvCuWbTaRRagZQUI-60" value="" style="ellipse;whiteSpace=wrap;html=1;align=center;aspect=fixed;fillColor=none;strokeColor=none;resizable=0;perimeter=centerPerimeter;rotatable=0;allowArrows=0;points=[];outlineConnect=1;" parent="1" vertex="1">
          <mxGeometry x="225" y="435" width="10" height="10" as="geometry" />
        </mxCell>
        <mxCell id="omGNRCdwlUB1Dh95L6wn-1" value="" style="ellipse;whiteSpace=wrap;html=1;align=center;aspect=fixed;fillColor=none;strokeColor=none;resizable=0;perimeter=centerPerimeter;rotatable=0;allowArrows=0;points=[];outlineConnect=1;" vertex="1" parent="1">
          <mxGeometry x="110" y="340" width="10" height="10" as="geometry" />
        </mxCell>
        <mxCell id="omGNRCdwlUB1Dh95L6wn-2" value="" style="ellipse;whiteSpace=wrap;html=1;align=center;aspect=fixed;fillColor=none;strokeColor=none;resizable=0;perimeter=centerPerimeter;rotatable=0;allowArrows=0;points=[];outlineConnect=1;" vertex="1" parent="1">
          <mxGeometry x="190" y="400" width="10" height="10" as="geometry" />
        </mxCell>
        <mxCell id="omGNRCdwlUB1Dh95L6wn-3" value="" style="rounded=0;orthogonalLoop=1;jettySize=auto;html=1;endArrow=halfCircle;endFill=0;endSize=6;strokeWidth=1;sketch=0;exitX=0.5;exitY=0;exitDx=0;exitDy=0;" edge="1" parent="1" source="qWcGwvCuWbTaRRagZQUI-5">
          <mxGeometry relative="1" as="geometry">
            <mxPoint x="110" y="420" as="sourcePoint" />
            <mxPoint x="100" y="330" as="targetPoint" />
          </mxGeometry>
        </mxCell>
        <mxCell id="omGNRCdwlUB1Dh95L6wn-4" value="Entrada/Salida/Tranaferencia de Productos" style="edgeLabel;html=1;align=center;verticalAlign=middle;resizable=0;points=[];" connectable="0" vertex="1" parent="omGNRCdwlUB1Dh95L6wn-3">
          <mxGeometry x="0.4353" y="3" relative="1" as="geometry">
            <mxPoint x="23" y="-8" as="offset" />
          </mxGeometry>
        </mxCell>
        <mxCell id="omGNRCdwlUB1Dh95L6wn-6" value="" style="rounded=0;orthogonalLoop=1;jettySize=auto;html=1;endArrow=oval;endFill=0;sketch=0;sourcePerimeterSpacing=0;targetPerimeterSpacing=0;endSize=10;exitX=0.5;exitY=1;exitDx=0;exitDy=0;" edge="1" parent="1" source="qWcGwvCuWbTaRRagZQUI-3">
          <mxGeometry relative="1" as="geometry">
            <mxPoint x="140" y="310" as="sourcePoint" />
            <mxPoint x="100" y="330" as="targetPoint" />
          </mxGeometry>
        </mxCell>
      </root>
    </mxGraphModel>
  </diagram>
</mxfile>
